<?xml version="1.0" encoding="utf-8"?>
<svg xmlns="http://www.w3.org/2000/svg" xmlns:xlink="http://www.w3.org/1999/xlink" xml:space="preserve" width="1023" height="1023" viewBox="0 0 1023 1023"><rect width="1023" height="1023" fill="#ffffff" x="0" y="0"/><g fill="#000000">
<g transform="translate(341,62) scale(5.3216666666667)"><circle cx="3" cy="3" r="2.5"/></g>
<g transform="translate(527,62) scale(5.3216666666667)"><path d="M6,5.5H3C1.6,5.5,0.5,4.4,0.5,3v0c0-1.4,1.1-2.5,2.5-2.5h3V5.5z"/></g>
<g transform="translate(558,62) scale(5.3216666666667)"><path d="M3,5.5H0v-5h3c1.4,0,2.5,1.1,2.5,2.5v0C5.5,4.4,4.4,5.5,3,5.5z"/></g>
<g transform="translate(651,62) scale(5.3216666666667)"><path d="M6,5.5H3C1.6,5.5,0.5,4.4,0.5,3v0c0-1.4,1.1-2.5,2.5-2.5h3V5.5z"/></g>
<g transform="translate(682,62) scale(5.3216666666667)"><path d="M3,5.5H0v-5h3c1.4,0,2.5,1.1,2.5,2.5v0C5.5,4.4,4.4,5.5,3,5.5z"/></g>
<g transform="translate(310,93) scale(5.3216666666667)"><path d="M6,5.5H3C1.6,5.5,0.5,4.4,0.5,3v0c0-1.4,1.1-2.5,2.5-2.5h3V5.5z"/></g>
<g transform="translate(341,93) scale(5.3216666666667)"><path d="M3,5.5H0v-5h3c1.4,0,2.5,1.1,2.5,2.5v0C5.5,4.4,4.4,5.5,3,5.5z"/></g>
<g transform="translate(403,93) scale(5.3216666666667)"><path d="M6,5.5H3C1.6,5.5,0.5,4.4,0.5,3v0c0-1.4,1.1-2.5,2.5-2.5h3V5.5z"/></g>
<g transform="translate(434,93) scale(5.3216666666667)"><path d="M3,5.5H0v-5h3c1.4,0,2.5,1.1,2.5,2.5v0C5.5,4.4,4.4,5.5,3,5.5z"/></g>
<g transform="translate(682,93) scale(5.3216666666667)"><circle cx="3" cy="3" r="2.5"/></g>
<g transform="translate(341,124) scale(5.3216666666667)"><path d="M6,5.5H3C1.6,5.5,0.5,4.4,0.5,3v0c0-1.4,1.1-2.5,2.5-2.5h3V5.5z"/></g>
<g transform="translate(372,124) scale(5.3216666666667)"><rect y="0.5" width="6" height="5"/></g>
<g transform="translate(403,124) scale(5.3216666666667)"><path d="M3,5.5H0v-5h3c1.4,0,2.5,1.1,2.5,2.5v0C5.5,4.4,4.4,5.5,3,5.5z"/></g>
<g transform="translate(496,124) scale(5.3216666666667)"><circle cx="3" cy="3" r="2.5"/></g>
<g transform="translate(558,124) scale(5.3216666666667)"><circle cx="3" cy="3" r="2.5"/></g>
<g transform="translate(620,124) scale(5.3216666666667)"><path d="M6,5.5H3C1.6,5.5,0.5,4.4,0.5,3v0c0-1.4,1.1-2.5,2.5-2.5h3V5.5z"/></g>
<g transform="translate(651,124) scale(5.3216666666667)"><path d="M3,5.5H0v-5h3c1.4,0,2.5,1.1,2.5,2.5v0C5.5,4.4,4.4,5.5,3,5.5z"/></g>
<g transform="translate(310,155) scale(5.3216666666667)"><path d="M6,5.5H3C1.6,5.5,0.5,4.4,0.5,3v0c0-1.4,1.1-2.5,2.5-2.5h3V5.5z"/></g>
<g transform="translate(341,155) scale(5.3216666666667)"><path d="M3,5.5H0v-5h3c1.4,0,2.5,1.1,2.5,2.5v0C5.5,4.4,4.4,5.5,3,5.5z"/></g>
<g transform="translate(403,155) scale(5.3216666666667)"><circle cx="3" cy="3" r="2.5"/></g>
<g transform="translate(558,155) scale(5.3216666666667)"><path d="M6,5.5H3C1.6,5.5,0.5,4.4,0.5,3v0c0-1.4,1.1-2.5,2.5-2.5h3V5.5z"/></g>
<g transform="translate(589,155) scale(5.3216666666667)"><path d="M3,5.5H0v-5h3c1.4,0,2.5,1.1,2.5,2.5v0C5.5,4.4,4.4,5.5,3,5.5z"/></g>
<g transform="translate(682,155) scale(5.3216666666667)"><circle cx="3" cy="3" r="2.5"/></g>
<g transform="translate(372,186) scale(5.3216666666667)"><circle cx="3" cy="3" r="2.5"/></g>
<g transform="translate(434,186) scale(5.3216666666667)"><path d="M6,5.5H3C1.6,5.5,0.5,4.4,0.5,3v0c0-1.4,1.1-2.5,2.5-2.5h3V5.5z"/></g>
<g transform="translate(465,186) scale(5.3216666666667)"><rect y="0.5" width="6" height="5"/></g>
<g transform="translate(496,186) scale(5.3216666666667)"><rect y="0.5" width="6" height="5"/></g>
<g transform="translate(527,186) scale(5.3216666666667)"><path d="M3,5.5H0v-5h3c1.4,0,2.5,1.1,2.5,2.5v0C5.5,4.4,4.4,5.5,3,5.5z"/></g>
<g transform="translate(651,186) scale(5.3216666666667)"><path d="M6,5.5H3C1.6,5.5,0.5,4.4,0.5,3v0c0-1.4,1.1-2.5,2.5-2.5h3V5.5z"/></g>
<g transform="translate(682,186) scale(5.3216666666667)"><path d="M3,5.5H0v-5h3c1.4,0,2.5,1.1,2.5,2.5v0C5.5,4.4,4.4,5.5,3,5.5z"/></g>
<g transform="translate(310,217) scale(5.3216666666667)"><circle cx="3" cy="3" r="2.5"/></g>
<g transform="translate(372,217) scale(5.3216666666667)"><circle cx="3" cy="3" r="2.5"/></g>
<g transform="translate(465,217) scale(5.3216666666667)"><path d="M6,5.5H3C1.6,5.5,0.5,4.4,0.5,3v0c0-1.4,1.1-2.5,2.5-2.5h3V5.5z"/></g>
<g transform="translate(496,217) scale(5.3216666666667)"><rect y="0.5" width="6" height="5"/></g>
<g transform="translate(527,217) scale(5.3216666666667)"><rect y="0.5" width="6" height="5"/></g>
<g transform="translate(558,217) scale(5.3216666666667)"><rect y="0.5" width="6" height="5"/></g>
<g transform="translate(589,217) scale(5.3216666666667)"><rect y="0.5" width="6" height="5"/></g>
<g transform="translate(620,217) scale(5.3216666666667)"><path d="M3,5.5H0v-5h3c1.4,0,2.5,1.1,2.5,2.5v0C5.5,4.4,4.4,5.5,3,5.5z"/></g>
<g transform="translate(310,248) scale(5.3216666666667)"><circle cx="3" cy="3" r="2.5"/></g>
<g transform="translate(372,248) scale(5.3216666666667)"><circle cx="3" cy="3" r="2.5"/></g>
<g transform="translate(434,248) scale(5.3216666666667)"><circle cx="3" cy="3" r="2.5"/></g>
<g transform="translate(496,248) scale(5.3216666666667)"><circle cx="3" cy="3" r="2.5"/></g>
<g transform="translate(558,248) scale(5.3216666666667)"><circle cx="3" cy="3" r="2.5"/></g>
<g transform="translate(620,248) scale(5.3216666666667)"><circle cx="3" cy="3" r="2.5"/></g>
<g transform="translate(682,248) scale(5.3216666666667)"><circle cx="3" cy="3" r="2.5"/></g>
<g transform="translate(434,279) scale(5.3216666666667)"><path d="M6,5.5H3C1.6,5.5,0.5,4.4,0.5,3v0c0-1.4,1.1-2.5,2.5-2.5h3V5.5z"/></g>
<g transform="translate(465,279) scale(5.3216666666667)"><path d="M3,5.5H0v-5h3c1.4,0,2.5,1.1,2.5,2.5v0C5.5,4.4,4.4,5.5,3,5.5z"/></g>
<g transform="translate(527,279) scale(5.3216666666667)"><circle cx="3" cy="3" r="2.5"/></g>
<g transform="translate(620,279) scale(5.3216666666667)"><path d="M6,5.5H3C1.6,5.5,0.5,4.4,0.5,3v0c0-1.4,1.1-2.5,2.5-2.5h3V5.5z"/></g>
<g transform="translate(651,279) scale(5.3216666666667)"><rect y="0.5" width="6" height="5"/></g>
<g transform="translate(682,279) scale(5.3216666666667)"><path d="M3,5.5H0v-5h3c1.4,0,2.5,1.1,2.5,2.5v0C5.5,4.4,4.4,5.5,3,5.5z"/></g>
<g transform="translate(62,310) scale(5.3216666666667)"><path d="M6,5.5H3C1.6,5.5,0.5,4.4,0.5,3v0c0-1.4,1.1-2.5,2.5-2.5h3V5.5z"/></g>
<g transform="translate(93,310) scale(5.3216666666667)"><rect y="0.5" width="6" height="5"/></g>
<g transform="translate(124,310) scale(5.3216666666667)"><rect y="0.5" width="6" height="5"/></g>
<g transform="translate(155,310) scale(5.3216666666667)"><rect y="0.5" width="6" height="5"/></g>
<g transform="translate(186,310) scale(5.3216666666667)"><path d="M3,5.5H0v-5h3c1.4,0,2.5,1.1,2.5,2.5v0C5.5,4.4,4.4,5.5,3,5.5z"/></g>
<g transform="translate(248,310) scale(5.3216666666667)"><path d="M6,5.5H3C1.6,5.5,0.5,4.4,0.5,3v0c0-1.4,1.1-2.5,2.5-2.5h3V5.5z"/></g>
<g transform="translate(279,310) scale(5.3216666666667)"><rect y="0.5" width="6" height="5"/></g>
<g transform="translate(310,310) scale(5.3216666666667)"><rect y="0.5" width="6" height="5"/></g>
<g transform="translate(341,310) scale(5.3216666666667)"><rect y="0.5" width="6" height="5"/></g>
<g transform="translate(372,310) scale(5.3216666666667)"><path d="M3,5.5H0v-5h3c1.4,0,2.5,1.1,2.5,2.5v0C5.5,4.4,4.4,5.5,3,5.5z"/></g>
<g transform="translate(434,310) scale(5.3216666666667)"><circle cx="3" cy="3" r="2.5"/></g>
<g transform="translate(496,310) scale(5.3216666666667)"><path d="M6,5.5H3C1.6,5.5,0.5,4.4,0.5,3v0c0-1.4,1.1-2.5,2.5-2.5h3V5.5z"/></g>
<g transform="translate(527,310) scale(5.3216666666667)"><path d="M3,5.5H0v-5h3c1.4,0,2.5,1.1,2.5,2.5v0C5.5,4.4,4.4,5.5,3,5.5z"/></g>
<g transform="translate(589,310) scale(5.3216666666667)"><circle cx="3" cy="3" r="2.5"/></g>
<g transform="translate(651,310) scale(5.3216666666667)"><circle cx="3" cy="3" r="2.5"/></g>
<g transform="translate(713,310) scale(5.3216666666667)"><circle cx="3" cy="3" r="2.5"/></g>
<g transform="translate(775,310) scale(5.3216666666667)"><circle cx="3" cy="3" r="2.5"/></g>
<g transform="translate(837,310) scale(5.3216666666667)"><circle cx="3" cy="3" r="2.5"/></g>
<g transform="translate(899,310) scale(5.3216666666667)"><circle cx="3" cy="3" r="2.5"/></g>
<g transform="translate(62,341) scale(5.3216666666667)"><circle cx="3" cy="3" r="2.5"/></g>
<g transform="translate(155,341) scale(5.3216666666667)"><path d="M6,5.5H3C1.6,5.5,0.5,4.4,0.5,3v0c0-1.4,1.1-2.5,2.5-2.5h3V5.5z"/></g>
<g transform="translate(186,341) scale(5.3216666666667)"><path d="M3,5.5H0v-5h3c1.4,0,2.5,1.1,2.5,2.5v0C5.5,4.4,4.4,5.5,3,5.5z"/></g>
<g transform="translate(279,341) scale(5.3216666666667)"><path d="M6,5.5H3C1.6,5.5,0.5,4.4,0.5,3v0c0-1.4,1.1-2.5,2.5-2.5h3V5.5z"/></g>
<g transform="translate(310,341) scale(5.3216666666667)"><rect y="0.5" width="6" height="5"/></g>
<g transform="translate(341,341) scale(5.3216666666667)"><path d="M3,5.5H0v-5h3c1.4,0,2.5,1.1,2.5,2.5v0C5.5,4.4,4.4,5.5,3,5.5z"/></g>
<g transform="translate(527,341) scale(5.3216666666667)"><path d="M6,5.5H3C1.6,5.5,0.5,4.4,0.5,3v0c0-1.4,1.1-2.5,2.5-2.5h3V5.5z"/></g>
<g transform="translate(558,341) scale(5.3216666666667)"><path d="M3,5.5H0v-5h3c1.4,0,2.5,1.1,2.5,2.5v0C5.5,4.4,4.4,5.5,3,5.5z"/></g>
<g transform="translate(651,341) scale(5.3216666666667)"><path d="M6,5.5H3C1.6,5.5,0.5,4.4,0.5,3v0c0-1.4,1.1-2.5,2.5-2.5h3V5.5z"/></g>
<g transform="translate(682,341) scale(5.3216666666667)"><rect y="0.5" width="6" height="5"/></g>
<g transform="translate(713,341) scale(5.3216666666667)"><rect y="0.5" width="6" height="5"/></g>
<g transform="translate(744,341) scale(5.3216666666667)"><rect y="0.5" width="6" height="5"/></g>
<g transform="translate(775,341) scale(5.3216666666667)"><rect y="0.5" width="6" height="5"/></g>
<g transform="translate(806,341) scale(5.3216666666667)"><path d="M3,5.5H0v-5h3c1.4,0,2.5,1.1,2.5,2.5v0C5.5,4.4,4.4,5.5,3,5.5z"/></g>
<g transform="translate(930,341) scale(5.3216666666667)"><circle cx="3" cy="3" r="2.5"/></g>
<g transform="translate(62,372) scale(5.3216666666667)"><circle cx="3" cy="3" r="2.5"/></g>
<g transform="translate(124,372) scale(5.3216666666667)"><path d="M6,5.5H3C1.6,5.5,0.5,4.4,0.5,3v0c0-1.4,1.1-2.5,2.5-2.5h3V5.5z"/></g>
<g transform="translate(155,372) scale(5.3216666666667)"><path d="M3,5.5H0v-5h3c1.4,0,2.5,1.1,2.5,2.5v0C5.5,4.4,4.4,5.5,3,5.5z"/></g>
<g transform="translate(248,372) scale(5.3216666666667)"><circle cx="3" cy="3" r="2.5"/></g>
<g transform="translate(341,372) scale(5.3216666666667)"><circle cx="3" cy="3" r="2.5"/></g>
<g transform="translate(403,372) scale(5.3216666666667)"><path d="M6,5.5H3C1.6,5.5,0.5,4.4,0.5,3v0c0-1.4,1.1-2.5,2.5-2.5h3V5.5z"/></g>
<g transform="translate(434,372) scale(5.3216666666667)"><path d="M3,5.5H0v-5h3c1.4,0,2.5,1.1,2.5,2.5v0C5.5,4.4,4.4,5.5,3,5.5z"/></g>
<g transform="translate(682,372) scale(5.3216666666667)"><path d="M6,5.5H3C1.6,5.5,0.5,4.4,0.5,3v0c0-1.4,1.1-2.5,2.5-2.5h3V5.5z"/></g>
<g transform="translate(713,372) scale(5.3216666666667)"><path d="M3,5.5H0v-5h3c1.4,0,2.5,1.1,2.5,2.5v0C5.5,4.4,4.4,5.5,3,5.5z"/></g>
<g transform="translate(806,372) scale(5.3216666666667)"><circle cx="3" cy="3" r="2.5"/></g>
<g transform="translate(62,403) scale(5.3216666666667)"><path d="M6,5.5H3C1.6,5.5,0.5,4.4,0.5,3v0c0-1.4,1.1-2.5,2.5-2.5h3V5.5z"/></g>
<g transform="translate(93,403) scale(5.3216666666667)"><rect y="0.5" width="6" height="5"/></g>
<g transform="translate(124,403) scale(5.3216666666667)"><rect y="0.5" width="6" height="5"/></g>
<g transform="translate(155,403) scale(5.3216666666667)"><path d="M3,5.5H0v-5h3c1.4,0,2.5,1.1,2.5,2.5v0C5.5,4.4,4.4,5.5,3,5.5z"/></g>
<g transform="translate(217,403) scale(5.3216666666667)"><circle cx="3" cy="3" r="2.5"/></g>
<g transform="translate(310,403) scale(5.3216666666667)"><path d="M6,5.5H3C1.6,5.5,0.5,4.4,0.5,3v0c0-1.4,1.1-2.5,2.5-2.5h3V5.5z"/></g>
<g transform="translate(341,403) scale(5.3216666666667)"><rect y="0.5" width="6" height="5"/></g>
<g transform="translate(372,403) scale(5.3216666666667)"><rect y="0.5" width="6" height="5"/></g>
<g transform="translate(403,403) scale(5.3216666666667)"><path d="M3,5.5H0v-5h3c1.4,0,2.5,1.1,2.5,2.5v0C5.5,4.4,4.4,5.5,3,5.5z"/></g>
<g transform="translate(496,403) scale(5.3216666666667)"><circle cx="3" cy="3" r="2.5"/></g>
<g transform="translate(558,403) scale(5.3216666666667)"><circle cx="3" cy="3" r="2.5"/></g>
<g transform="translate(651,403) scale(5.3216666666667)"><path d="M6,5.5H3C1.6,5.5,0.5,4.4,0.5,3v0c0-1.4,1.1-2.5,2.5-2.5h3V5.5z"/></g>
<g transform="translate(682,403) scale(5.3216666666667)"><path d="M3,5.5H0v-5h3c1.4,0,2.5,1.1,2.5,2.5v0C5.5,4.4,4.4,5.5,3,5.5z"/></g>
<g transform="translate(899,403) scale(5.3216666666667)"><circle cx="3" cy="3" r="2.5"/></g>
<g transform="translate(62,434) scale(5.3216666666667)"><circle cx="3" cy="3" r="2.5"/></g>
<g transform="translate(124,434) scale(5.3216666666667)"><path d="M6,5.5H3C1.6,5.5,0.5,4.4,0.5,3v0c0-1.4,1.1-2.5,2.5-2.5h3V5.5z"/></g>
<g transform="translate(155,434) scale(5.3216666666667)"><path d="M3,5.5H0v-5h3c1.4,0,2.5,1.1,2.5,2.5v0C5.5,4.4,4.4,5.5,3,5.5z"/></g>
<g transform="translate(248,434) scale(5.3216666666667)"><path d="M6,5.5H3C1.6,5.5,0.5,4.4,0.5,3v0c0-1.4,1.1-2.5,2.5-2.5h3V5.5z"/></g>
<g transform="translate(279,434) scale(5.3216666666667)"><rect y="0.5" width="6" height="5"/></g>
<g transform="translate(310,434) scale(5.3216666666667)"><rect y="0.5" width="6" height="5"/></g>
<g transform="translate(341,434) scale(5.3216666666667)"><path d="M3,5.5H0v-5h3c1.4,0,2.5,1.1,2.5,2.5v0C5.5,4.4,4.4,5.5,3,5.5z"/></g>
<g transform="translate(403,434) scale(5.3216666666667)"><circle cx="3" cy="3" r="2.5"/></g>
<g transform="translate(589,434) scale(5.3216666666667)"><circle cx="3" cy="3" r="2.5"/></g>
<g transform="translate(651,434) scale(5.3216666666667)"><circle cx="3" cy="3" r="2.5"/></g>
<g transform="translate(837,434) scale(5.3216666666667)"><path d="M6,5.5H3C1.6,5.5,0.5,4.4,0.5,3v0c0-1.4,1.1-2.5,2.5-2.5h3V5.5z"/></g>
<g transform="translate(868,434) scale(5.3216666666667)"><path d="M3,5.5H0v-5h3c1.4,0,2.5,1.1,2.5,2.5v0C5.5,4.4,4.4,5.5,3,5.5z"/></g>
<g transform="translate(62,465) scale(5.3216666666667)"><path d="M6,5.5H3C1.6,5.5,0.5,4.4,0.5,3v0c0-1.4,1.1-2.5,2.5-2.5h3V5.5z"/></g>
<g transform="translate(93,465) scale(5.3216666666667)"><path d="M3,5.5H0v-5h3c1.4,0,2.5,1.1,2.5,2.5v0C5.5,4.4,4.4,5.5,3,5.5z"/></g>
<g transform="translate(155,465) scale(5.3216666666667)"><circle cx="3" cy="3" r="2.5"/></g>
<g transform="translate(217,465) scale(5.3216666666667)"><circle cx="3" cy="3" r="2.5"/></g>
<g transform="translate(341,465) scale(5.3216666666667)"><path d="M6,5.5H3C1.6,5.5,0.5,4.4,0.5,3v0c0-1.4,1.1-2.5,2.5-2.5h3V5.5z"/></g>
<g transform="translate(372,465) scale(5.3216666666667)"><path d="M3,5.5H0v-5h3c1.4,0,2.5,1.1,2.5,2.5v0C5.5,4.4,4.4,5.5,3,5.5z"/></g>
<g transform="translate(434,465) scale(5.3216666666667)"><path d="M6,5.5H3C1.6,5.5,0.5,4.4,0.5,3v0c0-1.4,1.1-2.5,2.5-2.5h3V5.5z"/></g>
<g transform="translate(465,465) scale(5.3216666666667)"><rect y="0.5" width="6" height="5"/></g>
<g transform="translate(496,465) scale(5.3216666666667)"><rect y="0.5" width="6" height="5"/></g>
<g transform="translate(527,465) scale(5.3216666666667)"><path d="M3,5.5H0v-5h3c1.4,0,2.5,1.1,2.5,2.5v0C5.5,4.4,4.4,5.5,3,5.5z"/></g>
<g transform="translate(620,465) scale(5.3216666666667)"><path d="M6,5.5H3C1.6,5.5,0.5,4.4,0.5,3v0c0-1.4,1.1-2.5,2.5-2.5h3V5.5z"/></g>
<g transform="translate(651,465) scale(5.3216666666667)"><rect y="0.5" width="6" height="5"/></g>
<g transform="translate(682,465) scale(5.3216666666667)"><path d="M3,5.5H0v-5h3c1.4,0,2.5,1.1,2.5,2.5v0C5.5,4.4,4.4,5.5,3,5.5z"/></g>
<g transform="translate(744,465) scale(5.3216666666667)"><path d="M6,5.5H3C1.6,5.5,0.5,4.4,0.5,3v0c0-1.4,1.1-2.5,2.5-2.5h3V5.5z"/></g>
<g transform="translate(775,465) scale(5.3216666666667)"><rect y="0.5" width="6" height="5"/></g>
<g transform="translate(806,465) scale(5.3216666666667)"><path d="M3,5.5H0v-5h3c1.4,0,2.5,1.1,2.5,2.5v0C5.5,4.4,4.4,5.5,3,5.5z"/></g>
<g transform="translate(868,465) scale(5.3216666666667)"><circle cx="3" cy="3" r="2.5"/></g>
<g transform="translate(930,465) scale(5.3216666666667)"><circle cx="3" cy="3" r="2.5"/></g>
<g transform="translate(62,496) scale(5.3216666666667)"><circle cx="3" cy="3" r="2.5"/></g>
<g transform="translate(155,496) scale(5.3216666666667)"><circle cx="3" cy="3" r="2.5"/></g>
<g transform="translate(217,496) scale(5.3216666666667)"><path d="M6,5.5H3C1.6,5.5,0.5,4.4,0.5,3v0c0-1.4,1.1-2.5,2.5-2.5h3V5.5z"/></g>
<g transform="translate(248,496) scale(5.3216666666667)"><rect y="0.5" width="6" height="5"/></g>
<g transform="translate(279,496) scale(5.3216666666667)"><rect y="0.5" width="6" height="5"/></g>
<g transform="translate(310,496) scale(5.3216666666667)"><rect y="0.5" width="6" height="5"/></g>
<g transform="translate(341,496) scale(5.3216666666667)"><rect y="0.5" width="6" height="5"/></g>
<g transform="translate(372,496) scale(5.3216666666667)"><path d="M3,5.5H0v-5h3c1.4,0,2.5,1.1,2.5,2.5v0C5.5,4.4,4.4,5.5,3,5.5z"/></g>
<g transform="translate(465,496) scale(5.3216666666667)"><path d="M6,5.5H3C1.6,5.5,0.5,4.4,0.5,3v0c0-1.4,1.1-2.5,2.5-2.5h3V5.5z"/></g>
<g transform="translate(496,496) scale(5.3216666666667)"><rect y="0.5" width="6" height="5"/></g>
<g transform="translate(527,496) scale(5.3216666666667)"><rect y="0.5" width="6" height="5"/></g>
<g transform="translate(558,496) scale(5.3216666666667)"><rect y="0.5" width="6" height="5"/></g>
<g transform="translate(589,496) scale(5.3216666666667)"><rect y="0.5" width="6" height="5"/></g>
<g transform="translate(620,496) scale(5.3216666666667)"><path d="M3,5.5H0v-5h3c1.4,0,2.5,1.1,2.5,2.5v0C5.5,4.4,4.4,5.5,3,5.5z"/></g>
<g transform="translate(682,496) scale(5.3216666666667)"><path d="M6,5.5H3C1.6,5.5,0.5,4.4,0.5,3v0c0-1.4,1.1-2.5,2.5-2.5h3V5.5z"/></g>
<g transform="translate(713,496) scale(5.3216666666667)"><path d="M3,5.5H0v-5h3c1.4,0,2.5,1.1,2.5,2.5v0C5.5,4.4,4.4,5.5,3,5.5z"/></g>
<g transform="translate(868,496) scale(5.3216666666667)"><circle cx="3" cy="3" r="2.5"/></g>
<g transform="translate(93,527) scale(5.3216666666667)"><circle cx="3" cy="3" r="2.5"/></g>
<g transform="translate(155,527) scale(5.3216666666667)"><circle cx="3" cy="3" r="2.5"/></g>
<g transform="translate(341,527) scale(5.3216666666667)"><circle cx="3" cy="3" r="2.5"/></g>
<g transform="translate(434,527) scale(5.3216666666667)"><path d="M6,5.5H3C1.6,5.5,0.5,4.4,0.5,3v0c0-1.4,1.1-2.5,2.5-2.5h3V5.5z"/></g>
<g transform="translate(465,527) scale(5.3216666666667)"><path d="M3,5.5H0v-5h3c1.4,0,2.5,1.1,2.5,2.5v0C5.5,4.4,4.4,5.5,3,5.5z"/></g>
<g transform="translate(558,527) scale(5.3216666666667)"><circle cx="3" cy="3" r="2.5"/></g>
<g transform="translate(651,527) scale(5.3216666666667)"><circle cx="3" cy="3" r="2.5"/></g>
<g transform="translate(744,527) scale(5.3216666666667)"><path d="M6,5.5H3C1.6,5.5,0.5,4.4,0.5,3v0c0-1.4,1.1-2.5,2.5-2.5h3V5.5z"/></g>
<g transform="translate(775,527) scale(5.3216666666667)"><path d="M3,5.5H0v-5h3c1.4,0,2.5,1.1,2.5,2.5v0C5.5,4.4,4.4,5.5,3,5.5z"/></g>
<g transform="translate(899,527) scale(5.3216666666667)"><circle cx="3" cy="3" r="2.5"/></g>
<g transform="translate(62,558) scale(5.3216666666667)"><circle cx="3" cy="3" r="2.5"/></g>
<g transform="translate(124,558) scale(5.3216666666667)"><path d="M6,5.5H3C1.6,5.5,0.5,4.4,0.5,3v0c0-1.4,1.1-2.5,2.5-2.5h3V5.5z"/></g>
<g transform="translate(155,558) scale(5.3216666666667)"><path d="M3,5.5H0v-5h3c1.4,0,2.5,1.1,2.5,2.5v0C5.5,4.4,4.4,5.5,3,5.5z"/></g>
<g transform="translate(248,558) scale(5.3216666666667)"><circle cx="3" cy="3" r="2.5"/></g>
<g transform="translate(341,558) scale(5.3216666666667)"><path d="M6,5.5H3C1.6,5.5,0.5,4.4,0.5,3v0c0-1.4,1.1-2.5,2.5-2.5h3V5.5z"/></g>
<g transform="translate(372,558) scale(5.3216666666667)"><path d="M3,5.5H0v-5h3c1.4,0,2.5,1.1,2.5,2.5v0C5.5,4.4,4.4,5.5,3,5.5z"/></g>
<g transform="translate(434,558) scale(5.3216666666667)"><circle cx="3" cy="3" r="2.5"/></g>
<g transform="translate(496,558) scale(5.3216666666667)"><circle cx="3" cy="3" r="2.5"/></g>
<g transform="translate(589,558) scale(5.3216666666667)"><circle cx="3" cy="3" r="2.5"/></g>
<g transform="translate(868,558) scale(5.3216666666667)"><circle cx="3" cy="3" r="2.5"/></g>
<g transform="translate(62,589) scale(5.3216666666667)"><path d="M6,5.5H3C1.6,5.5,0.5,4.4,0.5,3v0c0-1.4,1.1-2.5,2.5-2.5h3V5.5z"/></g>
<g transform="translate(93,589) scale(5.3216666666667)"><path d="M3,5.5H0v-5h3c1.4,0,2.5,1.1,2.5,2.5v0C5.5,4.4,4.4,5.5,3,5.5z"/></g>
<g transform="translate(217,589) scale(5.3216666666667)"><circle cx="3" cy="3" r="2.5"/></g>
<g transform="translate(279,589) scale(5.3216666666667)"><circle cx="3" cy="3" r="2.5"/></g>
<g transform="translate(341,589) scale(5.3216666666667)"><circle cx="3" cy="3" r="2.5"/></g>
<g transform="translate(558,589) scale(5.3216666666667)"><circle cx="3" cy="3" r="2.5"/></g>
<g transform="translate(651,589) scale(5.3216666666667)"><path d="M6,5.5H3C1.6,5.5,0.5,4.4,0.5,3v0c0-1.4,1.1-2.5,2.5-2.5h3V5.5z"/></g>
<g transform="translate(682,589) scale(5.3216666666667)"><rect y="0.5" width="6" height="5"/></g>
<g transform="translate(713,589) scale(5.3216666666667)"><rect y="0.5" width="6" height="5"/></g>
<g transform="translate(744,589) scale(5.3216666666667)"><path d="M3,5.5H0v-5h3c1.4,0,2.5,1.1,2.5,2.5v0C5.5,4.4,4.4,5.5,3,5.5z"/></g>
<g transform="translate(806,589) scale(5.3216666666667)"><path d="M6,5.5H3C1.6,5.5,0.5,4.4,0.5,3v0c0-1.4,1.1-2.5,2.5-2.5h3V5.5z"/></g>
<g transform="translate(837,589) scale(5.3216666666667)"><rect y="0.5" width="6" height="5"/></g>
<g transform="translate(868,589) scale(5.3216666666667)"><path d="M3,5.5H0v-5h3c1.4,0,2.5,1.1,2.5,2.5v0C5.5,4.4,4.4,5.5,3,5.5z"/></g>
<g transform="translate(930,589) scale(5.3216666666667)"><circle cx="3" cy="3" r="2.5"/></g>
<g transform="translate(62,620) scale(5.3216666666667)"><circle cx="3" cy="3" r="2.5"/></g>
<g transform="translate(155,620) scale(5.3216666666667)"><circle cx="3" cy="3" r="2.5"/></g>
<g transform="translate(248,620) scale(5.3216666666667)"><circle cx="3" cy="3" r="2.5"/></g>
<g transform="translate(403,620) scale(5.3216666666667)"><path d="M6,5.5H3C1.6,5.5,0.5,4.4,0.5,3v0c0-1.4,1.1-2.5,2.5-2.5h3V5.5z"/></g>
<g transform="translate(434,620) scale(5.3216666666667)"><path d="M3,5.5H0v-5h3c1.4,0,2.5,1.1,2.5,2.5v0C5.5,4.4,4.4,5.5,3,5.5z"/></g>
<g transform="translate(527,620) scale(5.3216666666667)"><path d="M6,5.5H3C1.6,5.5,0.5,4.4,0.5,3v0c0-1.4,1.1-2.5,2.5-2.5h3V5.5z"/></g>
<g transform="translate(558,620) scale(5.3216666666667)"><path d="M3,5.5H0v-5h3c1.4,0,2.5,1.1,2.5,2.5v0C5.5,4.4,4.4,5.5,3,5.5z"/></g>
<g transform="translate(744,620) scale(5.3216666666667)"><path d="M6,5.5H3C1.6,5.5,0.5,4.4,0.5,3v0c0-1.4,1.1-2.5,2.5-2.5h3V5.5z"/></g>
<g transform="translate(775,620) scale(5.3216666666667)"><path d="M3,5.5H0v-5h3c1.4,0,2.5,1.1,2.5,2.5v0C5.5,4.4,4.4,5.5,3,5.5z"/></g>
<g transform="translate(837,620) scale(5.3216666666667)"><path d="M6,5.5H3C1.6,5.5,0.5,4.4,0.5,3v0c0-1.4,1.1-2.5,2.5-2.5h3V5.5z"/></g>
<g transform="translate(868,620) scale(5.3216666666667)"><path d="M3,5.5H0v-5h3c1.4,0,2.5,1.1,2.5,2.5v0C5.5,4.4,4.4,5.5,3,5.5z"/></g>
<g transform="translate(62,651) scale(5.3216666666667)"><circle cx="3" cy="3" r="2.5"/></g>
<g transform="translate(372,651) scale(5.3216666666667)"><path d="M6,5.5H3C1.6,5.5,0.5,4.4,0.5,3v0c0-1.4,1.1-2.5,2.5-2.5h3V5.5z"/></g>
<g transform="translate(403,651) scale(5.3216666666667)"><path d="M3,5.5H0v-5h3c1.4,0,2.5,1.1,2.5,2.5v0C5.5,4.4,4.4,5.5,3,5.5z"/></g>
<g transform="translate(496,651) scale(5.3216666666667)"><circle cx="3" cy="3" r="2.5"/></g>
<g transform="translate(620,651) scale(5.3216666666667)"><circle cx="3" cy="3" r="2.5"/></g>
<g transform="translate(682,651) scale(5.3216666666667)"><path d="M6,5.5H3C1.6,5.5,0.5,4.4,0.5,3v0c0-1.4,1.1-2.5,2.5-2.5h3V5.5z"/></g>
<g transform="translate(713,651) scale(5.3216666666667)"><path d="M3,5.5H0v-5h3c1.4,0,2.5,1.1,2.5,2.5v0C5.5,4.4,4.4,5.5,3,5.5z"/></g>
<g transform="translate(775,651) scale(5.3216666666667)"><path d="M6,5.5H3C1.6,5.5,0.5,4.4,0.5,3v0c0-1.4,1.1-2.5,2.5-2.5h3V5.5z"/></g>
<g transform="translate(806,651) scale(5.3216666666667)"><path d="M3,5.5H0v-5h3c1.4,0,2.5,1.1,2.5,2.5v0C5.5,4.4,4.4,5.5,3,5.5z"/></g>
<g transform="translate(899,651) scale(5.3216666666667)"><circle cx="3" cy="3" r="2.5"/></g>
<g transform="translate(62,682) scale(5.3216666666667)"><circle cx="3" cy="3" r="2.5"/></g>
<g transform="translate(124,682) scale(5.3216666666667)"><circle cx="3" cy="3" r="2.5"/></g>
<g transform="translate(186,682) scale(5.3216666666667)"><path d="M6,5.5H3C1.6,5.5,0.5,4.4,0.5,3v0c0-1.4,1.1-2.5,2.5-2.5h3V5.5z"/></g>
<g transform="translate(217,682) scale(5.3216666666667)"><rect y="0.5" width="6" height="5"/></g>
<g transform="translate(248,682) scale(5.3216666666667)"><path d="M3,5.5H0v-5h3c1.4,0,2.5,1.1,2.5,2.5v0C5.5,4.4,4.4,5.5,3,5.5z"/></g>
<g transform="translate(310,682) scale(5.3216666666667)"><circle cx="3" cy="3" r="2.5"/></g>
<g transform="translate(403,682) scale(5.3216666666667)"><circle cx="3" cy="3" r="2.5"/></g>
<g transform="translate(527,682) scale(5.3216666666667)"><circle cx="3" cy="3" r="2.5"/></g>
<g transform="translate(589,682) scale(5.3216666666667)"><circle cx="3" cy="3" r="2.5"/></g>
<g transform="translate(682,682) scale(5.3216666666667)"><path d="M6,5.5H3C1.6,5.5,0.5,4.4,0.5,3v0c0-1.4,1.1-2.5,2.5-2.5h3V5.5z"/></g>
<g transform="translate(713,682) scale(5.3216666666667)"><rect y="0.5" width="6" height="5"/></g>
<g transform="translate(744,682) scale(5.3216666666667)"><rect y="0.5" width="6" height="5"/></g>
<g transform="translate(775,682) scale(5.3216666666667)"><rect y="0.5" width="6" height="5"/></g>
<g transform="translate(806,682) scale(5.3216666666667)"><path d="M3,5.5H0v-5h3c1.4,0,2.5,1.1,2.5,2.5v0C5.5,4.4,4.4,5.5,3,5.5z"/></g>
<g transform="translate(868,682) scale(5.3216666666667)"><path d="M6,5.5H3C1.6,5.5,0.5,4.4,0.5,3v0c0-1.4,1.1-2.5,2.5-2.5h3V5.5z"/></g>
<g transform="translate(899,682) scale(5.3216666666667)"><rect y="0.5" width="6" height="5"/></g>
<g transform="translate(930,682) scale(5.3216666666667)"><path d="M3,5.5H0v-5h3c1.4,0,2.5,1.1,2.5,2.5v0C5.5,4.4,4.4,5.5,3,5.5z"/></g>
<g transform="translate(310,713) scale(5.3216666666667)"><circle cx="3" cy="3" r="2.5"/></g>
<g transform="translate(372,713) scale(5.3216666666667)"><circle cx="3" cy="3" r="2.5"/></g>
<g transform="translate(434,713) scale(5.3216666666667)"><path d="M6,5.5H3C1.6,5.5,0.5,4.4,0.5,3v0c0-1.4,1.1-2.5,2.5-2.5h3V5.5z"/></g>
<g transform="translate(465,713) scale(5.3216666666667)"><rect y="0.5" width="6" height="5"/></g>
<g transform="translate(496,713) scale(5.3216666666667)"><path d="M3,5.5H0v-5h3c1.4,0,2.5,1.1,2.5,2.5v0C5.5,4.4,4.4,5.5,3,5.5z"/></g>
<g transform="translate(558,713) scale(5.3216666666667)"><path d="M6,5.5H3C1.6,5.5,0.5,4.4,0.5,3v0c0-1.4,1.1-2.5,2.5-2.5h3V5.5z"/></g>
<g transform="translate(589,713) scale(5.3216666666667)"><rect y="0.5" width="6" height="5"/></g>
<g transform="translate(620,713) scale(5.3216666666667)"><rect y="0.5" width="6" height="5"/></g>
<g transform="translate(651,713) scale(5.3216666666667)"><rect y="0.5" width="6" height="5"/></g>
<g transform="translate(682,713) scale(5.3216666666667)"><path d="M3,5.5H0v-5h3c1.4,0,2.5,1.1,2.5,2.5v0C5.5,4.4,4.4,5.5,3,5.5z"/></g>
<g transform="translate(806,713) scale(5.3216666666667)"><path d="M6,5.5H3C1.6,5.5,0.5,4.4,0.5,3v0c0-1.4,1.1-2.5,2.5-2.5h3V5.5z"/></g>
<g transform="translate(837,713) scale(5.3216666666667)"><rect y="0.5" width="6" height="5"/></g>
<g transform="translate(868,713) scale(5.3216666666667)"><rect y="0.5" width="6" height="5"/></g>
<g transform="translate(899,713) scale(5.3216666666667)"><rect y="0.5" width="6" height="5"/></g>
<g transform="translate(930,713) scale(5.3216666666667)"><path d="M3,5.5H0v-5h3c1.4,0,2.5,1.1,2.5,2.5v0C5.5,4.4,4.4,5.5,3,5.5z"/></g>
<g transform="translate(310,744) scale(5.3216666666667)"><circle cx="3" cy="3" r="2.5"/></g>
<g transform="translate(465,744) scale(5.3216666666667)"><path d="M6,5.5H3C1.6,5.5,0.5,4.4,0.5,3v0c0-1.4,1.1-2.5,2.5-2.5h3V5.5z"/></g>
<g transform="translate(496,744) scale(5.3216666666667)"><rect y="0.5" width="6" height="5"/></g>
<g transform="translate(527,744) scale(5.3216666666667)"><path d="M3,5.5H0v-5h3c1.4,0,2.5,1.1,2.5,2.5v0C5.5,4.4,4.4,5.5,3,5.5z"/></g>
<g transform="translate(620,744) scale(5.3216666666667)"><path d="M6,5.5H3C1.6,5.5,0.5,4.4,0.5,3v0c0-1.4,1.1-2.5,2.5-2.5h3V5.5z"/></g>
<g transform="translate(651,744) scale(5.3216666666667)"><rect y="0.5" width="6" height="5"/></g>
<g transform="translate(682,744) scale(5.3216666666667)"><path d="M3,5.5H0v-5h3c1.4,0,2.5,1.1,2.5,2.5v0C5.5,4.4,4.4,5.5,3,5.5z"/></g>
<g transform="translate(744,744) scale(5.3216666666667)"><circle cx="3" cy="3" r="2.5"/></g>
<g transform="translate(806,744) scale(5.3216666666667)"><path d="M6,5.5H3C1.6,5.5,0.5,4.4,0.5,3v0c0-1.4,1.1-2.5,2.5-2.5h3V5.5z"/></g>
<g transform="translate(837,744) scale(5.3216666666667)"><rect y="0.5" width="6" height="5"/></g>
<g transform="translate(868,744) scale(5.3216666666667)"><path d="M3,5.5H0v-5h3c1.4,0,2.5,1.1,2.5,2.5v0C5.5,4.4,4.4,5.5,3,5.5z"/></g>
<g transform="translate(341,775) scale(5.3216666666667)"><path d="M6,5.5H3C1.6,5.5,0.5,4.4,0.5,3v0c0-1.4,1.1-2.5,2.5-2.5h3V5.5z"/></g>
<g transform="translate(372,775) scale(5.3216666666667)"><path d="M3,5.5H0v-5h3c1.4,0,2.5,1.1,2.5,2.5v0C5.5,4.4,4.4,5.5,3,5.5z"/></g>
<g transform="translate(434,775) scale(5.3216666666667)"><path d="M6,5.5H3C1.6,5.5,0.5,4.4,0.5,3v0c0-1.4,1.1-2.5,2.5-2.5h3V5.5z"/></g>
<g transform="translate(465,775) scale(5.3216666666667)"><path d="M3,5.5H0v-5h3c1.4,0,2.5,1.1,2.5,2.5v0C5.5,4.4,4.4,5.5,3,5.5z"/></g>
<g transform="translate(558,775) scale(5.3216666666667)"><circle cx="3" cy="3" r="2.5"/></g>
<g transform="translate(651,775) scale(5.3216666666667)"><path d="M6,5.5H3C1.6,5.5,0.5,4.4,0.5,3v0c0-1.4,1.1-2.5,2.5-2.5h3V5.5z"/></g>
<g transform="translate(682,775) scale(5.3216666666667)"><path d="M3,5.5H0v-5h3c1.4,0,2.5,1.1,2.5,2.5v0C5.5,4.4,4.4,5.5,3,5.5z"/></g>
<g transform="translate(806,775) scale(5.3216666666667)"><path d="M6,5.5H3C1.6,5.5,0.5,4.4,0.5,3v0c0-1.4,1.1-2.5,2.5-2.5h3V5.5z"/></g>
<g transform="translate(837,775) scale(5.3216666666667)"><path d="M3,5.5H0v-5h3c1.4,0,2.5,1.1,2.5,2.5v0C5.5,4.4,4.4,5.5,3,5.5z"/></g>
<g transform="translate(310,806) scale(5.3216666666667)"><path d="M6,5.5H3C1.6,5.5,0.5,4.4,0.5,3v0c0-1.4,1.1-2.5,2.5-2.5h3V5.5z"/></g>
<g transform="translate(341,806) scale(5.3216666666667)"><path d="M3,5.5H0v-5h3c1.4,0,2.5,1.1,2.5,2.5v0C5.5,4.4,4.4,5.5,3,5.5z"/></g>
<g transform="translate(434,806) scale(5.3216666666667)"><circle cx="3" cy="3" r="2.5"/></g>
<g transform="translate(496,806) scale(5.3216666666667)"><circle cx="3" cy="3" r="2.5"/></g>
<g transform="translate(589,806) scale(5.3216666666667)"><circle cx="3" cy="3" r="2.5"/></g>
<g transform="translate(682,806) scale(5.3216666666667)"><path d="M6,5.5H3C1.6,5.5,0.5,4.4,0.5,3v0c0-1.4,1.1-2.5,2.5-2.5h3V5.5z"/></g>
<g transform="translate(713,806) scale(5.3216666666667)"><rect y="0.5" width="6" height="5"/></g>
<g transform="translate(744,806) scale(5.3216666666667)"><rect y="0.5" width="6" height="5"/></g>
<g transform="translate(775,806) scale(5.3216666666667)"><rect y="0.5" width="6" height="5"/></g>
<g transform="translate(806,806) scale(5.3216666666667)"><rect y="0.5" width="6" height="5"/></g>
<g transform="translate(837,806) scale(5.3216666666667)"><rect y="0.5" width="6" height="5"/></g>
<g transform="translate(868,806) scale(5.3216666666667)"><rect y="0.5" width="6" height="5"/></g>
<g transform="translate(899,806) scale(5.3216666666667)"><path d="M3,5.5H0v-5h3c1.4,0,2.5,1.1,2.5,2.5v0C5.5,4.4,4.4,5.5,3,5.5z"/></g>
<g transform="translate(310,837) scale(5.3216666666667)"><path d="M6,5.5H3C1.6,5.5,0.5,4.4,0.5,3v0c0-1.4,1.1-2.5,2.5-2.5h3V5.5z"/></g>
<g transform="translate(341,837) scale(5.3216666666667)"><rect y="0.5" width="6" height="5"/></g>
<g transform="translate(372,837) scale(5.3216666666667)"><path d="M3,5.5H0v-5h3c1.4,0,2.5,1.1,2.5,2.5v0C5.5,4.4,4.4,5.5,3,5.5z"/></g>
<g transform="translate(589,837) scale(5.3216666666667)"><path d="M6,5.5H3C1.6,5.5,0.5,4.4,0.5,3v0c0-1.4,1.1-2.5,2.5-2.5h3V5.5z"/></g>
<g transform="translate(620,837) scale(5.3216666666667)"><path d="M3,5.5H0v-5h3c1.4,0,2.5,1.1,2.5,2.5v0C5.5,4.4,4.4,5.5,3,5.5z"/></g>
<g transform="translate(775,837) scale(5.3216666666667)"><circle cx="3" cy="3" r="2.5"/></g>
<g transform="translate(837,837) scale(5.3216666666667)"><circle cx="3" cy="3" r="2.5"/></g>
<g transform="translate(899,837) scale(5.3216666666667)"><path d="M6,5.5H3C1.6,5.5,0.5,4.4,0.5,3v0c0-1.4,1.1-2.5,2.5-2.5h3V5.5z"/></g>
<g transform="translate(930,837) scale(5.3216666666667)"><path d="M3,5.5H0v-5h3c1.4,0,2.5,1.1,2.5,2.5v0C5.5,4.4,4.4,5.5,3,5.5z"/></g>
<g transform="translate(310,868) scale(5.3216666666667)"><path d="M6,5.5H3C1.6,5.5,0.5,4.4,0.5,3v0c0-1.4,1.1-2.5,2.5-2.5h3V5.5z"/></g>
<g transform="translate(341,868) scale(5.3216666666667)"><path d="M3,5.5H0v-5h3c1.4,0,2.5,1.1,2.5,2.5v0C5.5,4.4,4.4,5.5,3,5.5z"/></g>
<g transform="translate(403,868) scale(5.3216666666667)"><path d="M6,5.5H3C1.6,5.5,0.5,4.4,0.5,3v0c0-1.4,1.1-2.5,2.5-2.5h3V5.5z"/></g>
<g transform="translate(434,868) scale(5.3216666666667)"><path d="M3,5.5H0v-5h3c1.4,0,2.5,1.1,2.5,2.5v0C5.5,4.4,4.4,5.5,3,5.5z"/></g>
<g transform="translate(527,868) scale(5.3216666666667)"><circle cx="3" cy="3" r="2.5"/></g>
<g transform="translate(589,868) scale(5.3216666666667)"><circle cx="3" cy="3" r="2.5"/></g>
<g transform="translate(651,868) scale(5.3216666666667)"><circle cx="3" cy="3" r="2.5"/></g>
<g transform="translate(713,868) scale(5.3216666666667)"><path d="M6,5.5H3C1.6,5.5,0.5,4.4,0.5,3v0c0-1.4,1.1-2.5,2.5-2.5h3V5.5z"/></g>
<g transform="translate(744,868) scale(5.3216666666667)"><rect y="0.5" width="6" height="5"/></g>
<g transform="translate(775,868) scale(5.3216666666667)"><rect y="0.5" width="6" height="5"/></g>
<g transform="translate(806,868) scale(5.3216666666667)"><rect y="0.5" width="6" height="5"/></g>
<g transform="translate(837,868) scale(5.3216666666667)"><rect y="0.5" width="6" height="5"/></g>
<g transform="translate(868,868) scale(5.3216666666667)"><rect y="0.5" width="6" height="5"/></g>
<g transform="translate(899,868) scale(5.3216666666667)"><path d="M3,5.5H0v-5h3c1.4,0,2.5,1.1,2.5,2.5v0C5.5,4.4,4.4,5.5,3,5.5z"/></g>
<g transform="translate(310,899) scale(5.3216666666667)"><path d="M6,5.5H3C1.6,5.5,0.5,4.4,0.5,3v0c0-1.4,1.1-2.5,2.5-2.5h3V5.5z"/></g>
<g transform="translate(341,899) scale(5.3216666666667)"><path d="M3,5.5H0v-5h3c1.4,0,2.5,1.1,2.5,2.5v0C5.5,4.4,4.4,5.5,3,5.5z"/></g>
<g transform="translate(403,899) scale(5.3216666666667)"><circle cx="3" cy="3" r="2.5"/></g>
<g transform="translate(496,899) scale(5.3216666666667)"><circle cx="3" cy="3" r="2.5"/></g>
<g transform="translate(558,899) scale(5.3216666666667)"><circle cx="3" cy="3" r="2.5"/></g>
<g transform="translate(651,899) scale(5.3216666666667)"><path d="M6,5.5H3C1.6,5.5,0.5,4.4,0.5,3v0c0-1.4,1.1-2.5,2.5-2.5h3V5.5z"/></g>
<g transform="translate(682,899) scale(5.3216666666667)"><path d="M3,5.5H0v-5h3c1.4,0,2.5,1.1,2.5,2.5v0C5.5,4.4,4.4,5.5,3,5.5z"/></g>
<g transform="translate(775,899) scale(5.3216666666667)"><circle cx="3" cy="3" r="2.5"/></g>
<g transform="translate(837,899) scale(5.3216666666667)"><circle cx="3" cy="3" r="2.5"/></g>
<g transform="translate(899,899) scale(5.3216666666667)"><circle cx="3" cy="3" r="2.5"/></g>
<g transform="translate(310,930) scale(5.3216666666667)"><path d="M6,5.5H3C1.6,5.5,0.5,4.4,0.5,3v0c0-1.4,1.1-2.5,2.5-2.5h3V5.5z"/></g>
<g transform="translate(341,930) scale(5.3216666666667)"><path d="M3,5.5H0v-5h3c1.4,0,2.5,1.1,2.5,2.5v0C5.5,4.4,4.4,5.5,3,5.5z"/></g>
<g transform="translate(403,930) scale(5.3216666666667)"><circle cx="3" cy="3" r="2.5"/></g>
<g transform="translate(589,930) scale(5.3216666666667)"><circle cx="3" cy="3" r="2.5"/></g>
<g transform="translate(651,930) scale(5.3216666666667)"><circle cx="3" cy="3" r="2.5"/></g>
<g transform="translate(775,930) scale(5.3216666666667)"><path d="M6,5.5H3C1.6,5.5,0.5,4.4,0.5,3v0c0-1.4,1.1-2.5,2.5-2.5h3V5.5z"/></g>
<g transform="translate(806,930) scale(5.3216666666667)"><rect y="0.5" width="6" height="5"/></g>
<g transform="translate(837,930) scale(5.3216666666667)"><rect y="0.5" width="6" height="5"/></g>
<g transform="translate(868,930) scale(5.3216666666667)"><path d="M3,5.5H0v-5h3c1.4,0,2.5,1.1,2.5,2.5v0C5.5,4.4,4.4,5.5,3,5.5z"/></g>
<g transform="translate(62,62)"><g transform="scale(15.5)"><path d="M14,0H4.4C2,0,0,2,0,4.4V14h14V0z M2,12V4.8C2,3.3,3.3,2,4.8,2H12v10H2z"/></g></g>
<g transform="translate(744,62)"><g transform="scale(15.5) rotate(90 7 7)"><path d="M14,0H4.4C2,0,0,2,0,4.4V14h14V0z M2,12V4.8C2,3.3,3.3,2,4.8,2H12v10H2z"/></g></g>
<g transform="translate(62,744)"><g transform="scale(15.5) rotate(-90 7 7)"><path d="M14,0H4.4C2,0,0,2,0,4.4V14h14V0z M2,12V4.8C2,3.3,3.3,2,4.8,2H12v10H2z"/></g></g>
<g transform="translate(124,124)"><g transform="scale(15.5)"><path d="M5.1,1.9H0.9C0.4,1.9,0,1.5,0,1v0c0-0.5,0.4-0.9,0.9-0.9h4.2C5.6,0.1,6,0.5,6,1v0C6,1.5,5.6,1.9,5.1,1.9z"/><path d="M5.1,3.9H0.9C0.4,3.9,0,3.5,0,3v0c0-0.5,0.4-0.9,0.9-0.9h4.2C5.6,2.1,6,2.5,6,3v0C6,3.5,5.6,3.9,5.1,3.9z"/><path d="M5.1,5.9H0.9C0.4,5.9,0,5.5,0,5v0c0-0.5,0.4-0.9,0.9-0.9h4.2C5.6,4.1,6,4.5,6,5v0C6,5.5,5.6,5.9,5.1,5.9z"/></g></g>
<g transform="translate(806,124)"><g transform="scale(15.5)"><path d="M5.1,1.9H0.9C0.4,1.9,0,1.5,0,1v0c0-0.5,0.4-0.9,0.9-0.9h4.2C5.6,0.1,6,0.5,6,1v0C6,1.5,5.6,1.9,5.1,1.9z"/><path d="M5.1,3.9H0.9C0.4,3.9,0,3.5,0,3v0c0-0.5,0.4-0.9,0.9-0.9h4.2C5.6,2.1,6,2.5,6,3v0C6,3.5,5.6,3.9,5.1,3.9z"/><path d="M5.1,5.9H0.9C0.4,5.9,0,5.5,0,5v0c0-0.5,0.4-0.9,0.9-0.9h4.2C5.6,4.1,6,4.5,6,5v0C6,5.5,5.6,5.9,5.1,5.9z"/></g></g>
<g transform="translate(124,806)"><g transform="scale(15.5)"><path d="M5.1,1.9H0.9C0.4,1.9,0,1.5,0,1v0c0-0.5,0.4-0.9,0.9-0.9h4.2C5.6,0.1,6,0.5,6,1v0C6,1.5,5.6,1.9,5.1,1.9z"/><path d="M5.1,3.9H0.9C0.4,3.9,0,3.5,0,3v0c0-0.5,0.4-0.9,0.9-0.9h4.2C5.6,2.1,6,2.5,6,3v0C6,3.5,5.6,3.9,5.1,3.9z"/><path d="M5.1,5.9H0.9C0.4,5.9,0,5.5,0,5v0c0-0.5,0.4-0.9,0.9-0.9h4.2C5.6,4.1,6,4.5,6,5v0C6,5.5,5.6,5.9,5.1,5.9z"/></g></g>
</g></svg>
